<?xml version="1.0" encoding="iso-8859-1"?>
<!-- Generator: Adobe Illustrator 18.0.0, SVG Export Plug-In . SVG Version: 6.00 Build 0)  -->
<!DOCTYPE svg PUBLIC "-//W3C//DTD SVG 1.1//EN" "http://www.w3.org/Graphics/SVG/1.1/DTD/svg11.dtd">
<svg version="1.1" id="Capa_1" xmlns="http://www.w3.org/2000/svg" xmlns:xlink="http://www.w3.org/1999/xlink" x="0px" y="0px"
	 viewBox="0 0 50 50" style="enable-background:new 0 0 50 50;fill:#007bff" xml:space="preserve">
<path d="M48.5,44.833h-3V24.039c0,0,1.965,1.393,1.967,1.394c0.953,0.675,2.368-0.028,2.368-1.224v-4
	c0-0.486-0.236-0.942-0.632-1.224L25.868,2.444c-0.521-0.369-1.215-0.369-1.735,0L0.798,18.986
	c-0.397,0.281-0.632,0.737-0.632,1.224c0,0,0,3.989,0,4c0,1.314,1.456,1.801,2.44,1.173c0.65-0.415,1.265-0.897,1.895-1.343v20.795
	h-3c-0.829,0-1.5,0.672-1.5,1.5c0,0.828,0.671,1.5,1.5,1.5h47c0.829,0,1.5-0.672,1.5-1.5C50,45.505,49.329,44.833,48.5,44.833z
	 M7.5,44.833V22.249c0-0.108-0.012-0.212-0.034-0.313L25,9.506l17.534,12.43c-0.022,0.101-0.034,0.206-0.034,0.313v22.584H7.5z
	 "/>
<path style="fill:#ED3F33" d="M30.594,32.003c1.035,2.628,0.244,5.915-1.704,7.94c-1.978,2.057-3.995,2.988-6.849,2.988c-3.713,0-5.56-2.295-6.353-4.542
	c-0.738-2.09-0.21-5.12,1.666-6.489c0.824,1.398,1.063,3.383,3.132,3.389c2.874,0.007,3.272-3.855,2.126-5.757
	c-1.477-2.453-1.526-5.7-0.123-8.196c1.403-2.496,4.478-4.086,7.341-4.099c-1.581,0.68-3.042,2.194-3.61,3.835
	c-0.647,1.869,0.322,4.098,1.266,5.69C28.523,28.513,29.849,30.11,30.594,32.003z"/>
<g>
</g>
<g>
</g>
<g>
</g>
<g>
</g>
<g>
</g>
<g>
</g>
<g>
</g>
<g>
</g>
<g>
</g>
<g>
</g>
<g>
</g>
<g>
</g>
<g>
</g>
<g>
</g>
<g>
</g>
</svg>
