<?xml version="1.0" encoding="utf-8"?>
<!-- Generator: Adobe Illustrator 18.1.1, SVG Export Plug-In . SVG Version: 6.00 Build 0)  -->
<!DOCTYPE svg PUBLIC "-//W3C//DTD SVG 1.1//EN" "http://www.w3.org/Graphics/SVG/1.1/DTD/svg11.dtd">
<svg version="1.1" id="Layer_1" xmlns="http://www.w3.org/2000/svg" xmlns:xlink="http://www.w3.org/1999/xlink" x="0px" y="0px"
	 viewBox="0 0 50 50" enable-background="new 0 0 50 50" xml:space="preserve" style="fill:gray">
<g>
	<path d="M31.5,43.3H5.9V6.7h25.7c0.6,0,1-0.5,1-1V1.9c0-0.6-0.5-1-1-1H1c-0.6,0-1,0.5-1,1l0,46.2c0,0.6,0.5,1,1,1h30.5
		c0.6,0,1-0.5,1-1v-3.8C32.6,43.7,32.1,43.3,31.5,43.3z"/>
	<path style="fill:#007bff" d="M49.7,24.3L35.8,10.4c-0.4-0.4-1.1-0.4-1.5,0l-3.3,3.3c-0.4,0.4-0.4,1.1,0,1.5l6.3,6.3H10.2c-0.6,0-1,0.5-1,1v5.1
		c0,0.6,0.5,1,1,1h27.2l-6.3,6.3c-0.4,0.4-0.4,1.1,0,1.5l3.3,3.3c0.2,0.2,0.5,0.3,0.7,0.3c0.3,0,0.5-0.1,0.7-0.3l13.9-13.9
		c0.2-0.2,0.3-0.5,0.3-0.7C50,24.7,49.9,24.5,49.7,24.3z"/>
</g>
<g>
	<path d="M-54.7,44.3v3.8c0,0.6,0.5,1,1,1h30.5c0.6,0,1-0.5,1-1V1.9c0-0.6-0.5-1-1-1h-30.5c-0.6,0-1,0.5-1,1v3.8c0,0.6,0.5,1,1,1
		H-28v36.6h-25.7C-54.2,43.3-54.7,43.7-54.7,44.3z"/>
	<path d="M-31.6,24.3l-13.9-13.9c-0.4-0.4-1.1-0.4-1.5,0l-3.3,3.3c-0.4,0.4-0.4,1.1,0,1.5l6.3,6.3h-27.2c-0.6,0-1,0.5-1,1v5.1
		c0,0.6,0.5,1,1,1h27.2l-6.3,6.3c-0.4,0.4-0.4,1.1,0,1.5l3.3,3.3c0.2,0.2,0.5,0.3,0.7,0.3c0.3,0,0.5-0.1,0.7-0.3l13.9-13.9
		c0.2-0.2,0.3-0.5,0.3-0.7C-31.3,24.7-31.4,24.5-31.6,24.3z"/>
</g>
<g>
	<path d="M68.8,78.1v10.6c0,0.6,0.5,1,1,1h17.8v5.5c0,0.4,0.2,0.7,0.5,0.9c0.2,0.1,0.3,0.1,0.5,0.1c0.2,0,0.4,0,0.5-0.1l20.6-11.9
		c0.3-0.2,0.5-0.5,0.5-0.9s-0.2-0.7-0.5-0.9L89.2,70.6c-0.3-0.2-0.7-0.2-1,0s-0.5,0.5-0.5,0.9V77H69.8C69.2,77,68.8,77.5,68.8,78.1z
		"/>
	<path d="M89.5,103.1H68.2c-1.4,0-2.5-1.1-2.5-2.5V66.1c0-1.4,1.1-2.5,2.5-2.5h21.3c0.6,0,1-0.5,1-1v-3.1c0-0.6-0.5-1-1-1H68.2
		c-4.3,0-7.7,3.5-7.7,7.7v34.6c0,4.3,3.5,7.7,7.7,7.7h21.3c0.6,0,1-0.5,1-1v-3.1C90.5,103.6,90,103.1,89.5,103.1z"/>
</g>
</svg>
